<?xml version="1.0" encoding="UTF-8"?><svg id="a" xmlns="http://www.w3.org/2000/svg" viewBox="0 0 512 512"><rect x="0" y="0" width="512" height="512" style="fill:#1b264f;"/><path d="M255.991,110.345c-80.445,0-145.655,65.21-145.655,145.655s65.21,145.655,145.655,145.655,145.655-65.21,145.655-145.655-65.21-145.655-145.655-145.655h0ZM81.205,256c0-96.526,78.261-174.786,174.786-174.786s174.786,78.261,174.786,174.786-78.261,174.786-174.786,174.786-174.786-78.246-174.786-174.786h0Z" style="fill:#283a97;"/><path d="M255.993,44.8c8.044,0,14.566,6.521,14.566,14.566h0v72.828c0,8.044-6.521,14.566-14.566,14.566s-14.566-6.521-14.566-14.566V59.365c0-8.044,6.521-14.566,14.566-14.566h0ZM44.793,256c0-8.044,6.521-14.566,14.566-14.566h72.828c8.044-.007,14.572,6.508,14.579,14.552.007,8.044-6.508,14.572-14.552,14.579H59.359c-8.044,0-14.566-6.521-14.566-14.566ZM255.993,365.241c8.044,0,14.566,6.521,14.566,14.566v72.828c0,8.044-6.521,14.566-14.566,14.566s-14.566-6.521-14.566-14.566v-72.828c0-8.044,6.521-14.566,14.566-14.566ZM365.235,256c0-8.044,6.521-14.566,14.566-14.566h72.828c8.044-.007,14.572,6.508,14.579,14.552.007,8.044-6.508,14.572-14.552,14.579h-72.855c-8.044,0-14.566-6.521-14.566-14.566h0ZM255.993,212.303c-24.133,0-43.697,19.564-43.697,43.697s19.564,43.697,43.697,43.697c24.133-.003,43.695-19.568,43.692-43.701-.003-24.129-19.563-43.689-43.692-43.692h0ZM183.166,256c-.002-40.222,32.603-72.829,72.824-72.831,40.222-.002,72.829,32.603,72.831,72.824v.007c-.002,40.222-32.609,72.826-72.831,72.824-40.219-.002-72.822-32.605-72.824-72.824Z" style="fill:#f5c1bc;"/></svg>